<svg xmlns="http://www.w3.org/2000/svg" x="0px" y="0px"
     width="64" height="64"
     viewBox="0 0 64 64"
     style="enable-background:new 0 0 64 64;;fill:#000000;"><linearGradient id="SVGID_1__44025" gradientUnits="userSpaceOnUse" x1="32" y1="7.8333" x2="32" y2="57.1948" spreadMethod="reflect">	<stop offset="0" style="stop-color:#1A6DFF"></stop>	<stop offset="1" style="stop-color:#C822FF"></stop></linearGradient><path style="fill:url(#SVGID_1__44025);" d="M56,8H16c-2.757,0-5,2.243-5,5v3H8c-2.757,0-5,2.243-5,5v30c0,2.757,2.243,5,5,5h40  c2.757,0,5-2.243,5-5v-3h3c2.757,0,5-2.243,5-5V13C61,10.243,58.757,8,56,8z M8,18h40c0.933,0,1.758,0.437,2.308,1.107  L29.921,36.097c-1.113,0.928-2.729,0.928-3.842,0L5.692,19.107C6.242,18.437,7.067,18,8,18z M51,44.657L36.887,32.896L51,21.136  V44.657z M19.113,32.896L5,44.657V21.136L19.113,32.896z M48,54H8c-1.654,0-3-1.346-3-3v-3.738l15.676-13.063l4.122,3.435  c0.928,0.772,2.065,1.159,3.202,1.159s2.274-0.387,3.202-1.159l4.122-3.435L51,47.262V51C51,52.654,49.654,54,48,54z M59,43  c0,1.654-1.346,3-3,3h-3V21c0-2.757-2.243-5-5-5H13v-3c0-1.654,1.346-3,3-3h40c1.654,0,3,1.346,3,3V43z"></path><linearGradient id="SVGID_2__44025" gradientUnits="userSpaceOnUse" x1="28" y1="7.8333" x2="28" y2="57.1948" spreadMethod="reflect">	<stop offset="0" style="stop-color:#1A6DFF"></stop>	<stop offset="1" style="stop-color:#C822FF"></stop></linearGradient><rect x="18" y="50" style="fill:url(#SVGID_2__44025);" width="20" height="2"></rect><linearGradient id="SVGID_3__44025" gradientUnits="userSpaceOnUse" x1="28" y1="20.5" x2="28" y2="34.0093" spreadMethod="reflect">	<stop offset="0" style="stop-color:#6DC7FF"></stop>	<stop offset="1" style="stop-color:#E6ABFF"></stop></linearGradient><path style="fill:url(#SVGID_3__44025);" d="M40.625,22.876L29.236,32.54c-0.723,0.613-1.75,0.613-2.473,0l-11.389-9.664  C14.642,22.254,15.056,21,15.995,21h24.009C40.944,21,41.358,22.254,40.625,22.876z"></path></svg>